<svg width="193" height="253" viewBox="0 0 193 253" fill="none" xmlns="http://www.w3.org/2000/svg">
<path d="M175.683 208.496L168.676 252.93H-0.000976562L6.15137 213.281L94.6768 131.079C99.4619 126.408 104.589 121.167 110.058 115.356C115.526 109.546 120.368 103.337 124.584 96.7285C128.913 90.0065 131.591 83.1706 132.616 76.2207C133.3 70.9798 133.186 65.9668 132.274 61.1816C131.477 56.3965 129.483 52.4658 126.293 49.3896C123.217 46.1995 118.603 44.5475 112.45 44.4336C105.386 44.2057 99.4619 46.1426 94.6768 50.2441C90.0055 54.3457 86.3597 59.4727 83.7393 65.625C81.2327 71.7773 79.5807 77.8727 78.7832 83.9111L22.8994 84.2529C23.6969 67.7327 28.5391 53.1494 37.4258 40.5029C46.4264 27.8564 57.8766 17.9443 71.7764 10.7666C85.79 3.58887 100.886 0.113932 117.064 0.341797C131.762 0.569661 144.864 3.361 156.371 8.71582C167.992 14.0706 176.936 21.9889 183.202 32.4707C189.468 42.9525 191.975 55.9977 190.722 71.6064C189.81 82.43 186.962 92.4561 182.177 101.685C177.506 110.913 171.638 119.572 164.574 127.661C157.624 135.636 150.162 143.27 142.187 150.562C134.325 157.739 126.749 164.746 119.457 171.582L81.6885 208.154L175.683 208.496Z" fill="#F5F5F5"/>
</svg>
