<svg width="192" height="257" viewBox="0 0 192 257" fill="none" xmlns="http://www.w3.org/2000/svg">
<path d="M71.0947 104.248L96.0459 104.59C102.882 104.362 108.92 102.938 114.161 100.317C119.516 97.6969 123.788 93.9372 126.979 89.0381C130.283 84.0251 132.333 78.1006 133.131 71.2646C133.814 66.1377 133.302 61.5804 131.593 57.5928C129.998 53.6051 127.377 50.472 123.731 48.1934C120.2 45.8008 115.813 44.5475 110.572 44.4336C105.559 44.3197 100.945 45.2311 96.7295 47.168C92.514 49.1048 88.9251 51.8392 85.9629 55.3711C83.1146 58.903 81.1777 63.0615 80.1523 67.8467L23.585 68.1885C24.3825 53.1494 29.1676 40.5599 37.9404 30.4199C46.8271 20.2799 57.8216 12.7035 70.9238 7.69043C84.026 2.56348 97.4701 0.0569661 111.256 0.170898C125.611 0.398763 138.941 3.07617 151.246 8.20312C163.551 13.2161 173.349 20.9066 180.641 31.2744C187.932 41.5283 191.122 54.5166 190.211 70.2393C189.641 80.835 186.736 90.1204 181.495 98.0957C176.254 106.071 169.475 112.679 161.158 117.92C152.955 123.161 144.011 127.148 134.327 129.883C124.757 132.503 115.243 133.813 105.787 133.813L66.3096 133.643L71.0947 104.248ZM64.2588 147.144L68.873 118.433L102.54 118.604C112.224 118.831 121.567 120.199 130.567 122.705C139.568 125.212 147.6 128.971 154.664 133.984C161.842 138.997 167.368 145.435 171.241 153.296C175.115 161.157 176.824 170.557 176.368 181.494C175.685 194.255 172.381 205.42 166.456 214.99C160.532 224.447 152.841 232.251 143.385 238.403C134.042 244.556 123.674 249.113 112.281 252.075C101.002 255.037 89.6087 256.462 78.1016 256.348C67.0501 256.12 56.7962 254.354 47.3398 251.05C37.8835 247.632 29.5664 242.847 22.3887 236.694C15.3249 230.428 9.79915 222.852 5.81152 213.965C1.93783 204.964 0.000976562 194.767 0.000976562 183.374H55.8848C55.9987 188.729 57.138 193.514 59.3027 197.729C61.4674 201.945 64.5436 205.306 68.5312 207.812C72.5189 210.205 77.2471 211.458 82.7158 211.572C88.9821 211.686 94.8496 210.49 100.318 207.983C105.787 205.363 110.344 201.717 113.99 197.046C117.636 192.261 119.915 186.678 120.826 180.298C121.738 173.576 121.339 167.822 119.63 163.037C118.035 158.138 115.13 154.378 110.914 151.758C106.699 149.023 101.173 147.542 94.3369 147.314L64.2588 147.144Z" fill="#F5F5F5"/>
</svg>
